<svg width="376" height="282" viewBox="0 0 376 282" fill="none" xmlns="http://www.w3.org/2000/svg">
<path d="M372.653 119.2C372.653 91.7002 350.618 62.9322 350.618 71.5575C350.618 80.1828 354.694 194.792 354.694 194.792L350.618 269.745C350.618 272.2 351.525 274.554 353.139 276.289C354.753 278.025 356.943 279 359.226 279C361.508 279 363.698 278.025 365.312 276.289C366.926 274.554 367.833 272.2 367.833 269.745L365.556 194.366C365.556 194.366 372.657 146.705 372.657 119.205L372.653 119.2Z" stroke="#E8D6AD" stroke-width="5" stroke-miterlimit="10"/>
<path d="M36.5541 3C36.5541 3 37.0606 22.8993 37.0606 41.7935C37.0606 55.9594 32.9907 64.8609 27.1978 68.4263L27.329 204.428C27.329 206.967 26.3761 209.402 24.68 211.197C22.9839 212.992 20.6834 214 18.2847 214C15.8861 214 13.5856 212.992 11.8895 211.197C10.1934 209.402 9.24051 206.967 9.24051 204.428L12.9034 68.4503C7.08346 64.9088 3 55.9977 3 41.7935C3 22.8993 3.49742 3 3.49742 3M20.0258 3V48.8717" stroke="#E8D6AD" stroke-width="5" stroke-miterlimit="10" stroke-linecap="round" stroke-linejoin="round"/>
<path d="M88.2155 89.5H286.44C287.357 89.5 288.2 90.0017 288.637 90.8074L323.375 154.807C324.279 156.473 323.073 158.5 321.178 158.5H183.682H53.4778C51.5824 158.5 50.3764 156.473 51.2806 154.807L86.0183 90.8074C86.4556 90.0017 87.2988 89.5 88.2155 89.5Z" stroke="#008041" stroke-width="5"/>
<path d="M286.627 276.5H88.0284C87.1619 276.5 86.3571 276.051 85.9016 275.314L51.9154 220.314C50.8862 218.649 52.0843 216.5 54.0421 216.5L185.494 216.5H320.614C322.571 216.5 323.77 218.649 322.74 220.314L288.754 275.314C288.299 276.051 287.494 276.5 286.627 276.5Z" stroke="#008041" stroke-width="5"/>
<rect x="39.5605" y="174.5" width="296.536" height="27" rx="13.5" stroke="#423F3F" stroke-width="5"/>
</svg>
