<svg width="21" height="21" viewBox="0 0 21 21" fill="none" xmlns="http://www.w3.org/2000/svg">
<path d="M4.59375 3.5H16.4062C17.9226 3.5 19.1618 4.68689 19.2455 6.18238L19.25 6.34375V14.6562C19.25 16.1726 18.0631 17.4118 16.5676 17.4955L16.4062 17.5H4.59375C3.07735 17.5 1.83816 16.3131 1.7545 14.8176L1.75 14.6562V6.34375C1.75 4.82735 2.93689 3.58816 4.43238 3.5045L4.59375 3.5H16.4062H4.59375ZM17.9375 8.20137L10.8056 11.9557C10.6417 12.042 10.4502 12.0543 10.2785 11.9927L10.1944 11.9557L3.0625 8.20225V14.6562C3.0625 15.4597 3.68122 16.1185 4.46816 16.1824L4.59375 16.1875H16.4062C17.2097 16.1875 17.8685 15.5688 17.9324 14.7818L17.9375 14.6562V8.20137ZM16.4062 4.8125H4.59375C3.79035 4.8125 3.13146 5.43122 3.06758 6.21816L3.0625 6.34375V6.71912L10.5 10.6334L17.9375 6.71825V6.34375C17.9375 5.54035 17.3188 4.88146 16.5318 4.81757L16.4062 4.8125Z" fill="#423F3F"/>
</svg>
