<svg width="22" height="22" viewBox="0 0 22 22" fill="none" xmlns="http://www.w3.org/2000/svg">
<path d="M6.46842 2.21691L7.53817 1.89446C8.75046 1.52904 10.0458 2.11958 10.5649 3.27443L11.3914 5.113C11.8339 6.09735 11.6007 7.25419 10.8114 7.99023L9.44167 9.26759C9.40161 9.3049 9.37622 9.35532 9.37017 9.40977C9.32956 9.77378 9.57632 10.4827 10.1448 11.4675C10.5583 12.1837 10.9325 12.6858 11.2511 12.9684C11.473 13.1652 11.5952 13.2077 11.6473 13.1922L13.49 12.6288C14.5218 12.3134 15.64 12.6895 16.2713 13.5645L17.4453 15.1916C18.1842 16.2157 18.0514 17.6285 17.1344 18.4969L16.3219 19.2663C15.4452 20.0966 14.1971 20.406 13.0341 20.0814C10.5095 19.3768 8.24597 17.2463 6.21841 13.7345C4.18804 10.2178 3.47562 7.1887 4.13236 4.6479C4.43291 3.48512 5.31853 2.56352 6.46842 2.21691ZM6.86525 3.5334C6.17531 3.74136 5.64394 4.29433 5.46361 4.992C4.91118 7.12921 5.54263 9.81402 7.4092 13.047C9.27328 16.2756 11.2798 18.1642 13.4038 18.757C14.1015 18.9518 14.8504 18.7662 15.3764 18.268L16.1889 17.4985C16.6057 17.1038 16.6661 16.4616 16.3302 15.9961L15.1563 14.369C14.8692 13.9714 14.361 13.8003 13.892 13.9438L12.0446 14.5085C10.9724 14.8282 9.99918 13.9651 8.9541 12.155C8.24982 10.9352 7.92157 9.99222 8.00367 9.25714C8.04621 8.87629 8.22365 8.52328 8.50389 8.26195L9.87369 6.98462C10.2325 6.65005 10.3384 6.12422 10.1373 5.67679L9.31077 3.83822C9.07479 3.31329 8.48603 3.04485 7.935 3.21095L6.86525 3.5334Z" fill="#423F3F"/>
</svg>
