<svg width="32" height="32" viewBox="0 0 32 32" fill="none" xmlns="http://www.w3.org/2000/svg">
<path fill-rule="evenodd" clip-rule="evenodd" d="M9.08998 15.2461L13.76 17.5231C13.9581 17.619 14.1218 17.7736 14.2288 17.9659C14.3358 18.1583 14.3809 18.3789 14.358 18.5978C14.335 18.8167 14.2451 19.0232 14.1005 19.1891C13.9559 19.3551 13.7637 19.4724 13.55 19.5251L8.50998 20.7821C8.36179 20.8188 8.20749 20.8234 8.05737 20.7957C7.90725 20.768 7.76477 20.7085 7.63945 20.6214C7.51413 20.5342 7.40886 20.4213 7.33066 20.2902C7.25246 20.1591 7.20313 20.0128 7.18598 19.8611C7.03026 18.5141 7.17367 17.1493 7.60598 15.8641C7.65473 15.7198 7.73369 15.5877 7.8376 15.4764C7.94151 15.3651 8.06797 15.2773 8.20854 15.2188C8.3491 15.1603 8.50053 15.1325 8.6527 15.1372C8.80488 15.1419 8.9543 15.179 9.09098 15.2461H9.08998ZM10.96 24.8601L14.436 21.0001C14.5828 20.8363 14.7764 20.7218 14.9906 20.6721C15.2048 20.6223 15.4292 20.6398 15.6331 20.7221C15.837 20.8044 16.0106 20.9475 16.1303 21.132C16.25 21.3165 16.3099 21.5333 16.302 21.7531L16.121 26.9471C16.1157 27.0998 16.0779 27.2496 16.01 27.3864C15.9421 27.5233 15.8457 27.6441 15.7274 27.7406C15.609 27.8372 15.4714 27.9074 15.3237 27.9465C15.176 27.9855 15.0216 27.9925 14.871 27.9671C13.5354 27.7417 12.2651 27.2274 11.149 26.4601C11.0232 26.3737 10.9174 26.2615 10.8386 26.1309C10.7597 26.0003 10.7097 25.8544 10.6918 25.7029C10.6739 25.5514 10.6885 25.3979 10.7348 25.2525C10.7811 25.1072 10.8578 24.9734 10.96 24.8601ZM19.202 19.7221L24.144 21.3281C24.289 21.3752 24.4224 21.4527 24.5351 21.5554C24.6477 21.6582 24.7372 21.7838 24.7974 21.9239C24.8576 22.0641 24.8872 22.2154 24.8842 22.3679C24.8812 22.5204 24.8457 22.6704 24.78 22.8081C24.197 24.0307 23.354 25.1112 22.31 25.9741C22.1923 26.0714 22.0552 26.1424 21.9078 26.1824C21.7604 26.2224 21.6062 26.2305 21.4555 26.206C21.3048 26.1816 21.161 26.1252 21.0338 26.0408C20.9066 25.9563 20.7989 25.8456 20.718 25.7161L17.964 21.3081C17.847 21.1218 17.7902 20.9039 17.8015 20.6842C17.8127 20.4645 17.8914 20.2536 18.0269 20.0803C18.1623 19.9069 18.3479 19.7795 18.5584 19.7154C18.7688 19.6513 18.9939 19.6536 19.203 19.7221H19.202ZM24.227 16.5701L19.232 18.0021C19.0207 18.0629 18.7959 18.0571 18.5881 17.9856C18.3802 17.9141 18.1994 17.7803 18.0703 17.6024C17.9411 17.4246 17.8699 17.2112 17.8663 16.9915C17.8626 16.7717 17.9268 16.5561 18.05 16.3741L20.956 12.0661C21.0409 11.9399 21.1518 11.8333 21.2812 11.7534C21.4106 11.6735 21.5555 11.622 21.7064 11.6025C21.8572 11.583 22.0105 11.5959 22.156 11.6403C22.3014 11.6848 22.4357 11.7597 22.55 11.8601C23.5671 12.7564 24.3739 13.8661 24.913 15.1101C24.974 15.25 25.0045 15.4014 25.0024 15.5541C25.0003 15.7068 24.9656 15.8572 24.9006 15.9954C24.8357 16.1336 24.742 16.2564 24.6258 16.3555C24.5097 16.4546 24.3737 16.5277 24.227 16.5701ZM12.557 4.45008C11.6739 4.68626 10.8143 5.00292 9.98898 5.39608C9.85591 5.4598 9.73745 5.55035 9.64105 5.66205C9.54465 5.77375 9.47239 5.90418 9.42882 6.04514C9.38524 6.1861 9.37129 6.33455 9.38784 6.48116C9.40439 6.62777 9.45108 6.76938 9.52498 6.89708L14.407 15.3531C14.5244 15.5577 14.7063 15.7178 14.9242 15.8084C15.1421 15.899 15.3838 15.9151 15.6117 15.854C15.8397 15.793 16.0411 15.6583 16.1845 15.4709C16.328 15.2836 16.4055 15.0541 16.405 14.8181V5.05308C16.4051 4.90556 16.3748 4.7596 16.3158 4.62437C16.2569 4.48914 16.1706 4.36756 16.0624 4.26726C15.9543 4.16697 15.8265 4.09013 15.6872 4.04157C15.5479 3.99301 15.4001 3.97378 15.253 3.98508C14.3417 4.05734 13.4389 4.21299 12.556 4.45008H12.557Z" fill="#E8D6AD"/>
</svg>
