<svg width="30" height="30" viewBox="0 0 30 30" fill="none" xmlns="http://www.w3.org/2000/svg">
<path d="M17.25 11.25C17.25 11.8467 17.0129 12.419 16.591 12.841C16.169 13.2629 15.5967 13.5 15 13.5C14.4033 13.5 13.831 13.2629 13.409 12.841C12.9871 12.419 12.75 11.8467 12.75 11.25C12.75 10.6533 12.9871 10.081 13.409 9.65901C13.831 9.23705 14.4033 9 15 9C15.5967 9 16.169 9.23705 16.591 9.65901C17.0129 10.081 17.25 10.6533 17.25 11.25ZM10.5 16.125V16.5C10.5 17.2956 10.8161 18.0587 11.3787 18.6213C11.9413 19.1839 12.7044 19.5 13.5 19.5H16.5C17.2956 19.5 18.0587 19.1839 18.6213 18.6213C19.1839 18.0587 19.5 17.2956 19.5 16.5V16.125C19.5 15.8266 19.3815 15.5405 19.1705 15.3295C18.9595 15.1185 18.6734 15 18.375 15H11.625C11.3266 15 11.0405 15.1185 10.8295 15.3295C10.6185 15.5405 10.5 15.8266 10.5 16.125ZM6 6V24C6 24.7956 6.31607 25.5587 6.87868 26.1213C7.44129 26.6839 8.20435 27 9 27H23.25C23.4489 27 23.6397 26.921 23.7803 26.7803C23.921 26.6397 24 26.4489 24 26.25C24 26.0511 23.921 25.8603 23.7803 25.7197C23.6397 25.579 23.4489 25.5 23.25 25.5H9C8.60218 25.5 8.22064 25.342 7.93934 25.0607C7.65804 24.7794 7.5 24.3978 7.5 24H22.5C22.8978 24 23.2794 23.842 23.5607 23.5607C23.842 23.2794 24 22.8978 24 22.5V6C24 5.20435 23.6839 4.44129 23.1213 3.87868C22.5587 3.31607 21.7956 3 21 3H9C8.20435 3 7.44129 3.31607 6.87868 3.87868C6.31607 4.44129 6 5.20435 6 6ZM21 4.5C21.3978 4.5 21.7794 4.65804 22.0607 4.93934C22.342 5.22064 22.5 5.60218 22.5 6V22.5H7.5V6C7.5 5.60218 7.65804 5.22064 7.93934 4.93934C8.22064 4.65804 8.60218 4.5 9 4.5H21Z" fill="black"/>
</svg>
