<svg width="30" height="30" viewBox="0 0 30 30" fill="none" xmlns="http://www.w3.org/2000/svg">
<path d="M15 7.5H28.125V9.375H15V7.5ZM15 20.625H28.125V22.5H15V20.625ZM9.375 13.125H3.75C3.25287 13.1245 2.77625 12.9268 2.42472 12.5753C2.0732 12.2238 1.8755 11.7471 1.875 11.25V5.625C1.8755 5.12787 2.0732 4.65125 2.42472 4.29972C2.77625 3.9482 3.25287 3.7505 3.75 3.75H9.375C9.87213 3.7505 10.3488 3.9482 10.7003 4.29972C11.0518 4.65125 11.2495 5.12787 11.25 5.625V11.25C11.2495 11.7471 11.0518 12.2238 10.7003 12.5753C10.3488 12.9268 9.87213 13.1245 9.375 13.125ZM3.75 5.625V11.25H9.37594L9.375 5.625H3.75ZM9.375 26.25H3.75C3.25287 26.2495 2.77625 26.0518 2.42472 25.7003C2.0732 25.3488 1.8755 24.8721 1.875 24.375V18.75C1.8755 18.2529 2.0732 17.7762 2.42472 17.4247C2.77625 17.0732 3.25287 16.8755 3.75 16.875H9.375C9.87213 16.8755 10.3488 17.0732 10.7003 17.4247C11.0518 17.7762 11.2495 18.2529 11.25 18.75V24.375C11.2495 24.8721 11.0518 25.3488 10.7003 25.7003C10.3488 26.0518 9.87213 26.2495 9.375 26.25ZM3.75 18.75V24.375H9.37594L9.375 18.75H3.75Z" fill="black"/>
</svg>
