<svg width="30" height="30" viewBox="0 0 30 30" fill="none" xmlns="http://www.w3.org/2000/svg">
<path d="M6.5625 5H23.4375C25.6038 5 27.374 6.69556 27.4936 8.83197L27.5 9.0625V20.9375C27.5 23.1038 25.8044 24.874 23.668 24.9936L23.4375 25H6.5625C4.39621 25 2.62594 23.3044 2.50643 21.168L2.5 20.9375V9.0625C2.5 6.89621 4.19556 5.12594 6.33197 5.00642L6.5625 5H23.4375H6.5625ZM25.625 11.7163L15.4366 17.0796C15.2024 17.2029 14.9289 17.2205 14.6835 17.1325L14.5634 17.0796L4.375 11.7175V20.9375C4.375 22.0853 5.25889 23.0265 6.38309 23.1177L6.5625 23.125H23.4375C24.5853 23.125 25.5265 22.2411 25.6177 21.1169L25.625 20.9375V11.7163ZM23.4375 6.875H6.5625C5.41479 6.875 4.47351 7.75889 4.38225 8.88309L4.375 9.0625V9.59875L15 15.1906L25.625 9.5975V9.0625C25.625 7.91479 24.7411 6.97351 23.6169 6.88225L23.4375 6.875Z" fill="#009F49"/>
</svg>
