<svg width="30" height="30" viewBox="0 0 30 30" fill="none" xmlns="http://www.w3.org/2000/svg">
<path d="M8.82058 3.02305L10.2793 2.58335C11.9325 2.08505 13.6988 2.89034 14.4066 4.46512L15.5338 6.97227C16.1371 8.31456 15.8191 9.89207 14.7429 10.8958L12.875 12.6376C12.8204 12.6885 12.7858 12.7572 12.7775 12.8315C12.7221 13.3279 13.0586 14.2946 13.8339 15.6375C14.3978 16.6141 14.908 17.2989 15.3424 17.6841C15.645 17.9525 15.8116 18.0105 15.8826 17.9894L18.3955 17.2211C19.8025 16.791 21.3273 17.3039 22.1881 18.497L23.789 20.7157C24.7966 22.1122 24.6155 24.0389 23.3651 25.223L22.2571 26.2722C21.0616 27.4045 19.3596 27.8264 17.7738 27.3837C14.3311 26.4229 11.2445 23.5176 8.47965 18.7289C5.71096 13.9334 4.73948 9.80277 5.63504 6.33803C6.04488 4.75243 7.25254 3.4957 8.82058 3.02305ZM9.3617 4.81826C8.42088 5.10185 7.69628 5.8559 7.45038 6.80726C6.69706 9.72165 7.55814 13.3827 10.1035 17.7914C12.6454 22.194 15.3815 24.7694 18.2779 25.5777C19.2294 25.8434 20.2505 25.5902 20.9679 24.9109L22.0758 23.8616C22.6441 23.3234 22.7265 22.4476 22.2685 21.8129L20.6676 19.5941C20.2763 19.0519 19.5833 18.8186 18.9436 19.0142L16.4245 19.7844C14.9624 20.2202 13.6353 19.0434 12.2101 16.575C11.2498 14.9116 10.8021 13.6257 10.9141 12.6234C10.9721 12.104 11.2141 11.6226 11.5962 11.2663L13.4641 9.52447C13.9534 9.06825 14.0979 8.3512 13.8236 7.74107L12.6965 5.23392C12.3747 4.51811 11.5719 4.15206 10.8205 4.37856L9.3617 4.81826Z" fill="#009F49"/>
</svg>
